# xmcd CD database file
#
# Track frame offsets:
#	150
#	15715
#	25502
#	41143
#	49818
#	58937
#	78403
#	95904
#	111689
#	123735
#
# Disc length: 1681 seconds
#
# Revision: 0
# Processed by: cddbd v1.5.2PL0 Copyright (c) Steve Scherf et al.
# Submitted via: CDex 1.51
#
DISCID=8f068f0a
DTITLE=Warren Malone - Hushabye
DYEAR=2003
DGENRE=Country
TTITLE0=Suzanna
TTITLE1=Hushabye
TTITLE2=Marianne
TTITLE3=Mistreated Mama Blues
TTITLE4=Midnight On The Water
TTITLE5=Appaloosa
TTITLE6=Hubless Wheel
TTITLE7=Leaving
TTITLE8=Your Heart
TTITLE9=Oh Suz
EXTD=YEAR: 2003
EXTT0=
EXTT1=
EXTT2=
EXTT3=
EXTT4=
EXTT5=
EXTT6=
EXTT7=
EXTT8=
EXTT9=
PLAYORDER=
